<?xml version="1.0" standalone="no"?>
<!DOCTYPE svg PUBLIC "-//W3C//DTD SVG 1.1//EN" "http://www.w3.org/Graphics/SVG/1.1/DTD/svg11.dtd">
<svg xmlns="http://www.w3.org/2000/svg">
<metadata>Copyright (C) 2019 by original authors @ fontello.com</metadata>
<defs>
<font id="icons" horiz-adv-x="1000" >
<font-face font-family="icons" font-weight="400" font-stretch="normal" units-per-em="1000" ascent="850" descent="-150" />
<missing-glyph horiz-adv-x="1000" />
<glyph glyph-name="spicy" unicode="&#xe800;" d="M712 264c-6-161-136-290-295-290-163 0-296 135-296 301 0 166 133 301 296 301-134-72-153-188-98-269 15 96 97 169 195 169-184-99-43-324 187-207 4 2 7 4 11 6 0-4 0-7 0-11m44 307c-16-66-60-136-139-189 71 307-148 441-248 468-21-91-172-198-247-275-75-77-122-183-122-300 0-235 187-425 417-425 230 0 416 190 416 425 0 98-24 200-77 296" horiz-adv-x="833" />

<glyph glyph-name="new" unicode="&#xe801;" d="M481 850l-76-159-138 109-1-176-171 38 75-160-170-41 136-111-136-111 170-41-75-160 171 39 1-178 138 110 76-159 77 159 138-110 1 178 171-39-75 160 170 41-136 111 136 111-170 41 75 160-171-38-1 176-138-109-77 159z m1-193l47-98 84 68 1-109 105 23-46-98 104-25-83-68 83-68-104-25 46-98-105 23-1-108-84 67-47-98-48 98-84-67-1 108-104-23 45 98-104 25 83 68-83 68 104 25-45 98 104-23 1 109 84-68 48 98z" horiz-adv-x="963" />

<glyph glyph-name="veggie" unicode="&#xe802;" d="M379 165c1-57-6-275-21-289 86 89 208 127 268 245 126 247-59 625-293 729-233-104-418-482-292-729 59-118 181-156 267-245-14 14-21 232-20 289 1 102 5 234 45 327 41-93 45-225 46-327z" horiz-adv-x="667" />

<glyph glyph-name="pp-large" unicode="&#xe803;" d="M400-10l0 0 0 0 0 0z m376 771c-77 55-172 87-274 89l0-466 274 377z m-565-809c78-54 172-87 274-89l0 467-274-378z m-184 244c32-94 92-175 169-233l275 377-444-144z m169 555c-77-59-137-140-169-233l444-144-275 377z m-175-250c-13-46-21-94-21-144 0-50 8-99 21-144l444 144-444 144z m939 17c-32 93-92 174-169 233l-274-377 443 144z m-458-655c102 2 197 35 274 89l-274 378 0-467z m-17 987c-102-2-196-34-274-89l274-377 0 466z m481-349l-444-144 444-144c13 45 21 94 21 144 0 50-8 98-21 144z m-449-161l443-144c-32-94-92-175-169-233l-274 377z" horiz-adv-x="1000" />

<glyph glyph-name="pp-medium" unicode="&#xe804;" d="M153-11c88-84 207-137 337-139l0 476-337-337z m-13 708c-85-88-137-206-140-337l476 0-336 337z m350 153c-130-2-249-55-337-139l337-337 0 476z m-490-510c3-130 55-249 140-337l336 337-476 0z m1000 20c-2 131-55 249-139 337l-337-337 476 0z m-153 351c-88 84-206 137-337 139l0-476 337 337z m14-708c84 88 137 207 139 337l-476 0 337-337z m-351 323l337-337c-88-84-206-137-337-139l0 476z" horiz-adv-x="1000" />

<glyph glyph-name="pp-x-large" unicode="&#xe805;" d="M754-75c70 42 129 101 171 171l-405 234 234-405z m-226 419l405-234c39 69 62 149 63 234l-468 0z m-272-427c69-39 149-62 234-63l0 468-234-405z m484 870c-69 39-149 62-234 63l0-468 234 405z m185-179c-42 70-101 129-171 171l-234-405 405 234z m-435 242c-85-1-165-24-234-63l234-405 0 468z m-419-754c42-70 101-129 171-171l234 405-405-234z m171 683c-70-42-129-101-171-171l405-234-234 405z m754-419c-1 85-24 165-63 234l-405-234 468 0z m-490-506c85 1 165 24 234 63l-234 405 0-468z m-443 740c-39-69-62-149-63-234l468 0-405 234z m405-250l-405-234c-39 69-62 149-63 234l468 0z" horiz-adv-x="1000" />

<glyph glyph-name="pp-small" unicode="&#xe806;" d="M914 598l-406-235 406-234c38 69 60 149 60 234 0 85-22 165-60 235z m-843-487c83-138 233-231 406-235l0 469-406-234z m833 505c-84 138-234 230-406 234l0-469 406 235z m-427 234c-173-4-323-96-406-234l406-235 0 469z m21-974c172 4 322 97 406 235l-406 234 0-469z m-32 487l-406-234c-38 69-60 149-60 234 0 85 22 165 60 235l406-235z" horiz-adv-x="1000" />

<glyph glyph-name="base" unicode="&#xe807;" d="M926 226h-892a33 33 0 0 1-34-33c0-89 53-180 144-250a558 558 0 0 1 336-109 558 558 0 0 1 336 109c92 70 144 161 144 250a33 33 0 0 1-34 33z m-151-231a489 489 0 0 0-295-95 489 489 0 0 0-294 95 284 284 0 0 0-115 165h818a284 284 0 0 0-114-165z m-686 329a169 169 0 0 1 149-87 172 172 0 0 1 79 20l306 159a33 33 0 0 1 16 20 32 32 0 0 1-3 25l-32 58 340 177a33 33 0 0 1 16 19 32 32 0 0 1-2 26l-51 92a34 34 0 0 1-46 13l-339-176-32 58a34 34 0 0 1-46 13l-424-221a33 33 0 0 1-16-19 32 32 0 0 1 2-25z m774 449l19-35-462-240-18 34z m-417-105l16-29-122-64a33 33 0 0 1-16-20 32 32 0 0 1 2-25l51-92a34 34 0 0 1 30-17 34 34 0 0 1 16 3l122 64 16-29-276-144a102 102 0 0 0-136 40l-67 123z" horiz-adv-x="962" />

<glyph glyph-name="instructions" unicode="&#xe808;" d="M999 685l-139 139a49 49 0 0 1-68 0l-517-518a48 48 0 0 1-11-16l-94-233a48 48 0 0 1 44-66h0a47 47 0 0 1 18 3l233 95a46 46 0 0 1 16 10l515 516 3 3a48 48 0 0 1 14 33 48 48 0 0 1-14 34z m-705-428l139-138-163-66-41 42z m676 389l-503-504-36 36c0 0 1 0 1 1l448 448a20 20 0 0 1-29 28l-447-448c-1 0-1-1-1-1l-86 86 504 504a7 7 0 0 0 5 2 7 7 0 0 0 5-2l139-139a7 7 0 0 0 0-11z m-111-250a20 20 0 0 1-20-20v-465a9 9 0 0 0-9-8h-769a9 9 0 0 0-8 8v761a9 9 0 0 0 8 8h508a20 20 0 0 1 0 40h-508a49 49 0 0 1-49-49v-760a49 49 0 0 1 49-49h769a49 49 0 0 1 49 49v465a20 20 0 0 1-20 20z" horiz-adv-x="1025" />

<glyph glyph-name="toppings" unicode="&#xe809;" d="M984 390a177 177 0 0 1 26 92 175 175 0 0 1-174 174h-13v7a187 187 0 0 1-187 187 181 181 0 0 1-138-62 188 188 0 0 1-111 36 178 178 0 0 1-177-152 159 159 0 0 1-95-144 112 112 0 0 1 3-33 173 173 0 0 1-118-161 171 171 0 0 1 154-171 138 138 0 0 1 135-102 143 143 0 0 1 111 55c40-52 46-121 46-233a31 31 0 0 1 33-33h141a30 30 0 0 1 23 10 36 36 0 0 1 10 23c-4 36 0 138 36 194 10 0 16-3 26-3a192 192 0 0 1 118 42 191 191 0 0 1 62-13 158 158 0 0 1 158 158 185 185 0 0 1-69 129z m-400-478h-76c0 112-13 198-85 274v19a190 190 0 0 1 105 10 186 186 0 0 1 89-115 753 753 0 0 1-33-188z m308 260a121 121 0 0 0-49 14 143 143 0 0 0-23 19 33 33 0 1 1-53-39l10-10a108 108 0 0 0-62-20 116 116 0 0 0-115 115v14a114 114 0 0 0 33 69 33 33 0 0 1-46 46 179 179 0 0 1-49-96 108 108 0 0 0-135 7 105 105 0 0 0-36 79 117 117 0 0 0 7 33 34 34 0 1 1-66 19 137 137 0 0 1-6-52 172 172 0 0 1 55-129 73 73 0 0 0 13-42 74 74 0 0 0-75-76 77 77 0 0 0-69 43 254 254 0 0 1 53 23 33 33 0 0 1-40 52 89 89 0 0 0-55-19h-7a109 109 0 0 0-108 108 106 106 0 0 0 95 106 82 82 0 0 0 56-10 20 20 0 0 1 13-4 32 32 0 0 1 29 20 33 33 0 0 1-16 43 214 214 0 0 1-66 16 49 49 0 0 0-3 23 92 92 0 0 0 69 89 83 83 0 0 0 72-13 28 28 0 0 0 16 0 33 33 0 0 1 27 16 32 32 0 0 1-10 47 127 127 0 0 1-75 23 118 118 0 0 0 108 75 120 120 0 0 0 88-43 290 290 0 0 0 20-32 32 32 0 0 1 29-20 25 25 0 0 1 14 3 34 34 0 0 1 19 43c-3 10-10 20-13 29a121 121 0 0 0 217-75 166 166 0 0 0-7-40 125 125 0 0 0-118-88 33 33 0 0 1 0-66 183 183 0 0 1 171 112 96 96 0 0 0 29 6 109 109 0 0 0 108-108 101 101 0 0 0-19-63 101 101 0 0 1-33 3 33 33 0 0 1 0-65 116 116 0 0 0 33-7 92 92 0 0 0-30-178z" horiz-adv-x="1053" />

<glyph glyph-name="cheesebottom" unicode="&#xe80a;" d="M922-150h-466a32 32 0 0 0-32 31 117 117 0 0 1-235 0 32 32 0 0 0-31-31h-126a32 32 0 0 0-31 31v938a32 32 0 0 0 31 31h333a32 32 0 0 0 32-31 172 172 0 0 1 344 0 32 32 0 0 0 32 31h149a32 32 0 0 0 31-31v-345a32 32 0 0 0-31-32 91 91 0 1 1 0-180 32 32 0 0 0 31-32v-349a32 32 0 0 0-31-31z m-438 63h406v289a153 153 0 0 0 0 300v285h-88a236 236 0 0 0-467 0h-271v-874h65a181 181 0 0 0 355 0z m-19 485a36 36 0 1 0-36-36 36 36 0 0 0 36 36z m-178 119a95 95 0 1 0-96-96 95 95 0 0 0 96 96z m1106-501l-179 45a485 485 0 0 1 286 501 24 24 0 1 1-47-6 437 437 0 0 0-269-456l47 188a24 24 0 1 1-46 11l-61-240a24 24 0 0 1 17-29l240-60a24 24 0 0 1 6-1 24 24 0 0 1 6 47z" horiz-adv-x="1516" />

<glyph glyph-name="cheesereg" unicode="&#xe80b;" d="M922-150h-466a32 32 0 0 0-32 31 117 117 0 0 1-235 0 32 32 0 0 0-31-31h-126a32 32 0 0 0-31 31v938a32 32 0 0 0 31 31h333a32 32 0 0 0 32-31 172 172 0 0 1 344 0 32 32 0 0 0 32 31h149a32 32 0 0 0 31-31v-345a32 32 0 0 0-31-32 91 91 0 1 1 0-180 32 32 0 0 0 31-32v-349a32 32 0 0 0-31-31z m-438 63h406v289a153 153 0 0 0 0 300v285h-88a236 236 0 0 0-467 0h-271v-874h65a181 181 0 0 0 355 0z m-19 485a36 36 0 1 0-36-36 36 36 0 0 0 36 36z m-178 119a95 95 0 1 0-96-96 95 95 0 0 0 96 96z" horiz-adv-x="954" />

<glyph glyph-name="cheeseeasy" unicode="&#xe80c;" d="M921-150h-466a32 32 0 0 0-32 31 117 117 0 0 1-234 0 32 32 0 0 0-32-31h-125a32 32 0 0 0-32 31v938a32 32 0 0 0 32 31h332a32 32 0 0 0 32-31 172 172 0 0 1 345 0 32 32 0 0 0 31 31h149a32 32 0 0 0 31-31v-345a32 32 0 0 0-31-32 91 91 0 1 1 0-180 32 32 0 0 0 31-32v-349a32 32 0 0 0-31-31z m-437 63h405v289a153 153 0 0 0 0 300v285h-87a236 236 0 0 0-467 0h-272v-874h65a181 181 0 0 0 356 0z m-20 485a36 36 0 1 0-35-36 36 36 0 0 0 35 36z m-178 119a95 95 0 1 0-95-96 95 95 0 0 0 95 96z m1111-201h151v99h-405v-99h255z" horiz-adv-x="1548" />

<glyph glyph-name="cheesetop" unicode="&#xe80d;" d="M922-150h-466a32 32 0 0 0-32 31 117 117 0 0 1-235 0 32 32 0 0 0-31-31h-126a32 32 0 0 0-31 31v938a32 32 0 0 0 31 31h333a32 32 0 0 0 32-31 172 172 0 0 1 344 0 32 32 0 0 0 32 31h149a32 32 0 0 0 31-31v-345a32 32 0 0 0-31-32 91 91 0 1 1 0-180 32 32 0 0 0 31-32v-349a32 32 0 0 0-31-31z m-438 63h406v289a153 153 0 0 0 0 300v285h-88a236 236 0 0 0-467 0h-271v-874h65a181 181 0 0 0 355 0z m-19 485a36 36 0 1 0-36-36 36 36 0 0 0 36 36z m-178 119a95 95 0 1 0-96-96 95 95 0 0 0 96 96z m956-12l179-45a489 489 0 0 1-287-505 24 24 0 1 1 47 5 441 441 0 0 0 271 460l-48-189a24 24 0 0 1 18-29 24 24 0 0 1 28 17l61 242a24 24 0 0 1-17 30l-241 61a24 24 0 0 1-11-47z" horiz-adv-x="1525" />

<glyph glyph-name="saucebottom" unicode="&#xe80e;" d="M691 650l-107 180a43 43 0 0 1-72 0l-113-192a40 40 0 0 1-3-5 165 165 0 0 1-19-78 172 172 0 0 1 343 0 164 164 0 0 1-29 95z m-143-181a87 87 0 0 0-87 86 84 84 0 0 0 11 42q1 2 2 4l74 126 71-120q1-1 2-3a84 84 0 0 0 15-49 87 87 0 0 0-88-86z m-286-20a43 43 0 0 1-73 0l-160-270a41 41 0 0 1-3-6 216 216 0 0 1-26-103 223 223 0 0 1 226-220 223 223 0 0 1 225 220 216 216 0 0 1-39 124z m-36-517a140 140 0 0 0-142 138 136 136 0 0 0 19 68 41 41 0 0 1 2 4l120 204 115-194c0-1 1-2 2-3a135 135 0 0 0 25-79 140 140 0 0 0-141-138z m1040 80l-175 44a473 473 0 0 1 280 489 23 23 0 1 1-46-5 427 427 0 0 0-263-446l46 184a23 23 0 1 1-45 11l-59-235a23 23 0 0 1 16-28l235-59a24 24 0 0 1 6-1 23 23 0 0 1 5 46z" horiz-adv-x="1386" />

<glyph glyph-name="sauceeasy" unicode="&#xe80f;" d="M691 650l-107 180a43 43 0 0 1-72 0l-113-192a40 40 0 0 1-3-5 165 165 0 0 1-19-78 172 172 0 0 1 343 0 164 164 0 0 1-29 95z m-143-181a87 87 0 0 0-87 86 84 84 0 0 0 11 42c1 2 1 3 2 4l74 126 71-120q1-1 2-3a84 84 0 0 0 15-49 87 87 0 0 0-88-86z m-286-20a43 43 0 0 1-73 0l-160-270a41 41 0 0 1-3-6 216 216 0 0 1-26-103 223 223 0 0 1 226-220 223 223 0 0 1 225 220 216 216 0 0 1-39 124z m-36-517a140 140 0 0 0-142 138 136 136 0 0 0 19 68 41 41 0 0 1 2 4l120 204 115-194q1-2 2-3a135 135 0 0 0 25-79 140 140 0 0 0-141-138z m1045 373h147v96h-395v-96h248z" horiz-adv-x="1418" />

<glyph glyph-name="saucereg" unicode="&#xe810;" d="M707 669l-109 184a44 44 0 0 1-74 0l-116-196a41 41 0 0 1-2-5 169 169 0 0 1-21-80 176 176 0 0 1 352 0 168 168 0 0 1-30 97z m-146-185a89 89 0 0 0-90 88 86 86 0 0 0 12 43q1 2 2 4l76 129 73-123q0-1 1-3a86 86 0 0 0 17-50 89 89 0 0 0-91-88z m-293-21a44 44 0 0 1-75 0l-163-276a42 42 0 0 1-3-6 222 222 0 0 1-27-105 231 231 0 0 1 462 0 221 221 0 0 1-40 127z m-37-529a143 143 0 0 0-145 142 139 139 0 0 0 19 69 42 42 0 0 1 2 4l123 209 118-199c1-1 1-2 2-3a138 138 0 0 0 26-80 143 143 0 0 0-145-142z" horiz-adv-x="737" />

<glyph glyph-name="saucetop" unicode="&#xe811;" d="M691 650l-107 180a43 43 0 0 1-72 0l-113-192a40 40 0 0 1-3-5 165 165 0 0 1-19-78 172 172 0 0 1 343 0 164 164 0 0 1-29 95z m-143-181a87 87 0 0 0-87 86 84 84 0 0 0 11 42c1 2 1 3 2 4l74 126 71-120c0-1 1-2 2-3a84 84 0 0 0 15-49 87 87 0 0 0-88-86z m-286-20a43 43 0 0 1-73 0l-160-270a41 41 0 0 1-3-6 216 216 0 0 1-26-103 223 223 0 0 1 226-220 223 223 0 0 1 225 220 216 216 0 0 1-39 124z m-36-517a140 140 0 0 0-142 138 136 136 0 0 0 19 68 40 40 0 0 1 2 4l120 204 115-194q1-2 2-3a135 135 0 0 0 25-79 140 140 0 0 0-141-138z m893 558l176-45a478 478 0 0 1-281-493 23 23 0 1 1 47 6 431 431 0 0 0 263 449l-46-185a23 23 0 0 1 17-28 23 23 0 0 1 28 17l59 236a23 23 0 0 1-16 29l-235 59a23 23 0 0 1-12-45z" horiz-adv-x="1395" />

<glyph glyph-name="choose-dip-1" unicode="&#xe812;" d="M251 99c138-138 362-138 500 0 96 96 125 234 87 355-12 39-2 86 5 126 6 33 10 68-15 95-27 25-62 21-95 15-40-6-87-17-126-5-121 38-259 9-355-87-137-138-137-362 0-500l-1 1z" horiz-adv-x="1000" />

<glyph glyph-name="wings-five-pieces" unicode="&#xe815;" d="M500-150c-276 0-500 224-500 500 0 276 224 500 500 500 276 0 500-224 500-500 0-276-224-500-500-500z m-5 327c87 0 141 46 141 118 0 68-50 109-107 109-30 0-56-11-72-27l0 65 156 0 0 75-242 0 0-197 60-15c18 18 39 25 66 25 34 0 52-16 52-38 0-21-18-39-55-39-32 0-63 12-86 33l-47-60c31-30 75-49 134-49z" horiz-adv-x="1000" />

<glyph glyph-name="choose-wing-1" unicode="&#xe81e;" d="M343 272c22 44 67 126 105 160 42 35 0 39 56 98 57 59 42 76 113 93 71 16 69 5 112 12 42 7 79 4 90-63 10-67-27-90-17-119 9-29 28-113-13-133-41-19-70-53-95-69-25-15-111 12-158-30-47-41-88 7-138-55-50-61-29-69-68-80-39-11-85-9-103 35-18 45-17 35-49 55-16 10-7 53 35 69 43 16 119 5 130 27l0 0z" horiz-adv-x="1000" />

<glyph glyph-name="wings-ten-pieces" unicode="&#xe855;" d="M500-150c-276 0-500 224-500 500 0 276 224 500 500 500 276 0 500-224 500-500 0-276-224-500-500-500z m-84 333l0 334-74 0-117-115 49-52 56 57 0-224 86 0z m196-6c97 0 143 85 143 173 0 88-46 172-143 172-98 0-143-84-143-172 0-88 45-173 143-173z m0 76c-40 0-56 38-56 97 0 59 16 96 56 96 40 0 56-37 56-96 0-59-16-97-56-97z" horiz-adv-x="1000" />

<glyph glyph-name="wings-twenty-pieces" unicode="&#xe856;" d="M500-150c-276 0-500 224-500 500 0 276 224 500 500 500 276 0 500-224 500-500 0-276-224-500-500-500z m-20 333l0 75-122 0c83 58 119 102 119 153 0 67-56 111-135 111-46 0-99-17-135-56l48-57c24 23 52 37 89 37 24 0 46-12 46-35 0-33-27-56-172-161l0-67 262 0z m186-6c97 0 143 85 143 173 0 88-46 172-143 172-98 0-143-84-143-172 0-88 45-173 143-173z m0 76c-40 0-56 38-56 97 0 59 16 96 56 96 40 0 56-37 56-96 0-59-16-97-56-97z" horiz-adv-x="1000" />

<glyph glyph-name="olive-oil" unicode="&#xe88f;" d="M832 377c0 108-88 195-197 195-23 0-46-4-67-12l0 64c21 9 36 30 36 55 0 32-27 59-61 59l0 0 11 73c0 5-1 9-4 13-3 3-8 5-12 5l-166 0c-5 0-9-2-12-5-3-4-4-8-4-13l10-73-61 0c-17 0-32-10-38-26-6-16-1-34 12-45l38-30c7-7 16-11 25-14l0-182c0-22-12-42-32-53-105-53-169-159-169-275 0-22 2-43 6-63-5 0-10 1-16 1-60 0-109-40-109-89 0-49 49-89 109-89 20 0 38 4 54 11 16-7 35-11 54-11 29 0 55 9 74 24l304 0c47 0 91 25 113 66 26 46 39 97 39 150 0 36-6 72-19 106 52 37 82 95 82 158z m-312 421l-9-60-112 0-9 60 130 0z m-183-137l-38 30c-4 4-3 8-2 10 0 2 2 6 8 6l238 0c16 0 29-13 29-28 0-16-13-29-29-29l-177 0c-10 0-21 4-29 11z m221-352c14-8 28-17 40-27l-286 0c12 10 26 19 40 27 50 25 81 76 81 132l0 178 44 0 0-178c0-56 31-107 81-132z m-112-248c-1 5-5 9-10 10-2 1-42 12-88 8 3 21 5 46 2 74-1 5-4 10-8 12-5 3-11 2-15 0-3-2-63-34-92-92-2 13-3 26-3 40 0 51 17 100 49 138l348 0c31-38 49-87 49-138 0-34-7-66-22-96-9-18-28-30-49-30l-232 0c21 12 46 31 69 59 3 4 4 10 2 15z m-315-157c-42 0-77 26-77 58 0 31 35 57 77 57 43 0 78-26 78-57 0-32-35-58-78-58z m54 135c-1 1-2 1-3 1-6 24-10 48-10 73 0 104 59 199 153 248 30 15 49 46 49 80l0 178 27 0 0-178c0-44-24-84-64-105-84-43-137-129-137-223 0-23 3-45 9-66-9-2-17-4-24-8z m54-135c-8 0-15 1-22 2 14 16 23 35 23 56 0 20-9 40-23 55 7 1 14 2 22 2 42 0 77-26 77-57 0-32-35-58-77-58z m70 152c-3-9-6-16-9-21-12 7-26 12-41 14 13 34 41 59 61 74 0-29-6-52-11-67z m17-41c4 8 9 18 13 31 23 4 46 3 62 0-24-23-48-37-65-44-3 5-6 9-10 13z m396 224c-6-4-9-12-6-20 14-33 21-69 21-106 0-47-12-94-34-135-17-31-50-50-86-50l-277 0c4 9 7 18 8 27l259 0c33 0 64 19 78 49 17 34 25 71 25 109 0 94-53 180-137 223-40 21-65 61-65 105l0 178 28 0 0-83c0-5 3-10 8-13 4-3 10-3 15-1 24 12 49 19 76 19 91 0 165-74 165-164 0-56-29-108-78-138z m-87 238c-39 0-75-24-92-59-1-4-1-9 0-13 9-19 24-35 42-44 32-17 59-38 83-65 3-3 7-5 12-5 3 0 6 1 8 2 30 18 48 50 48 84 0 55-45 100-101 100z m47-149c-24 24-51 45-82 60-10 6-19 14-24 23 12 21 34 34 59 34 38 0 69-30 69-68 0-19-8-37-22-49z" horiz-adv-x="854" />
</font>
</defs>
</svg>
