<?xml version="1.0" encoding="UTF-8"?>
<svg width="92px" height="64px" viewBox="0 0 92 64" version="1.1" xmlns="http://www.w3.org/2000/svg" xmlns:xlink="http://www.w3.org/1999/xlink">
    <!-- Generator: Sketch 50.2 (55047) - http://www.bohemiancoding.com/sketch -->
    <title>Fill 1</title>
    <desc>Created with Sketch.</desc>
    <defs></defs>
    <g id="Symbols" stroke="none" stroke-width="1" fill="none" fill-rule="evenodd">
        <g id="No_Photo" transform="translate(-18.000000, 0.000000)" fill="#FFFFFF">
            <path d="M95.23,54.44 L78.145,42.901 C74.934,47.25 69.791,50.084 63.971,50.089 C54.236,50.087 46.346,42.195 46.346,32.461 C46.346,29.063 47.324,25.902 48.989,23.211 L32.62,12.155 C31.441,13.174 30.692,14.676 30.69,16.356 L30.69,50.155 C30.693,53.223 33.18,55.709 36.247,55.711 L91.696,55.711 C93.039,55.711 94.27,55.233 95.23,54.44 Z M77.289,39.003 C78.261,37.027 78.823,34.813 78.824,32.461 C78.813,24.263 72.169,17.62 63.971,17.61 C59.583,17.611 55.651,19.527 52.933,22.554 L77.289,39.003 Z M49.123,32.461 C49.123,40.662 55.772,47.31 63.973,47.31 C68.835,47.31 73.139,44.962 75.848,41.35 L51.291,24.765 C49.924,27.011 49.123,29.639 49.123,32.461 Z M35.591,10.842 L50.61,20.986 C53.843,17.224 58.626,14.833 63.975,14.834 C73.71,14.834 81.603,22.727 81.602,32.462 C81.598,35.389 80.872,38.141 79.608,40.57 L96.851,52.215 C97.107,51.578 97.251,50.884 97.252,50.155 L97.252,16.356 C97.249,13.288 94.763,10.803 91.696,10.799 L78.221,10.799 L76.701,5.376 C76.555,4.743 75.996,4.293 75.346,4.287 L52.587,4.287 C51.936,4.286 51.371,4.74 51.234,5.377 L49.628,10.799 L36.247,10.799 C36.025,10.799 35.806,10.816 35.591,10.842 Z M108.4,63.334 L97.588,56.033 C96.081,57.545 93.996,58.483 91.692,58.486 L36.247,58.486 C31.646,58.482 27.917,54.753 27.912,50.152 L27.912,16.352 C27.915,14.102 28.812,12.063 30.263,10.564 L18,2.282 L19.537,0 L32.641,8.85 C33.733,8.323 34.953,8.019 36.247,8.017 L47.557,8.017 L48.547,4.676 C48.988,2.805 50.666,1.489 52.588,1.507 L75.347,1.507 C77.267,1.517 78.934,2.83 79.395,4.693 L79.421,4.807 L80.321,8.017 L91.689,8.017 C96.291,8.021 100.019,11.75 100.024,16.35 L100.024,50.15 C100.023,51.456 99.712,52.686 99.177,53.786 L109.937,61.053 L108.4,63.334 Z M63.973,50.089 L63.971,50.089 L63.969,50.089 L63.973,50.089 Z M89.902,15.955 C89.903,15.955 89.903,15.956 89.903,15.956 L89.903,15.955 L89.902,15.955 Z M87.338,18.516 C87.339,17.101 88.488,15.955 89.903,15.956 C91.318,15.956 92.464,17.103 92.464,18.517 L92.464,18.52 C92.463,19.936 91.315,21.083 89.899,21.082 C88.484,21.08 87.337,19.932 87.338,18.516 Z" id="Fill-1"></path>
        </g>
    </g>
</svg>