<?xml version="1.0" encoding="UTF-8"?>
<svg width="37px" height="35px" viewBox="0 0 37 35" version="1.1" xmlns="http://www.w3.org/2000/svg" xmlns:xlink="http://www.w3.org/1999/xlink">
    <!-- Generator: Sketch 52.6 (67491) - http://www.bohemiancoding.com/sketch -->
    <title>Group</title>
    <desc>Created with Sketch.</desc>
    <g id="Symbols" stroke="none" stroke-width="1" fill="none" fill-rule="evenodd">
        <g id="Pickup_Locations" transform="translate(-5.000000, -8.000000)">
            <g id="Group" transform="translate(5.000000, 8.000000)">
                <path d="M0.5,27.275517 L36.5,27.1773614 L36.5,2.2231179 C36.5,1.27829426 35.7095536,0.5 34.7421709,0.5 L2.25782913,0.5 C1.29032941,0.5 0.5,1.27822383 0.5,2.2231179 L0.5,27.275517 Z" id="Fill-1" stroke="#FF5E00" fill="#FFFFFF"></path>
                <path d="M22.7781746,30 L18.5,34.2781746 L14.2218254,30 L2.25782913,30 C1.01583496,30 0,28.9995969 0,27.7768821 L0,7.2231179 L37,7.2231179 L37,27.7768821 C37,28.9995969 35.9839769,30 34.7421709,30 L22.7781746,30 Z M16.3548738,23.5811679 C16.8598328,23.5811679 17.2693709,23.1735933 17.2693709,22.6703616 L17.2693709,18.2476244 C17.2693709,17.7443927 16.8598328,17.336443 16.3548738,17.336443 C15.8497266,17.336443 15.4396239,17.7443927 15.4396239,18.2476244 L15.4396239,22.6703616 C15.4396239,23.1735933 15.8497266,23.5811679 16.3548738,23.5811679 Z M18.5606204,15.531805 C18.6680865,16.0543557 18.9643241,16.1749587 20.1357236,16.1749587 L23.5908249,16.1749587 L23.5908249,14.5005832 L21.0784517,14.5005832 L22.5180459,12.9575018 L22.5289619,12.9468107 L22.5385604,12.9359321 C22.9582617,12.4101928 23.9134115,11.6993287 23.509896,10.7213749 C23.2768959,10.1560598 22.6354869,10.024203 21.4734979,10.0647166 L18.7761173,10.0647166 L18.7761173,11.8338115 L21.1744372,11.8338115 L19.4611902,13.5623927 C18.9027805,14.1644702 18.3833296,14.66939 18.5606204,15.531805 Z M30.3604559,17.2782985 C29.2705501,17.2415361 27.6214816,18.1508419 27.3856585,19.9660773 C27.3361601,20.7677218 27.3675906,21.3170941 27.515333,21.7724972 L25.0321318,21.7724972 L26.471726,20.2294158 L26.4824538,20.2187247 L26.4920523,20.2078461 C26.9119418,19.6821068 27.8669034,18.9712428 27.4635761,17.9932889 C27.2301996,17.4279738 26.5893553,17.296117 25.4264252,17.3366306 L22.729421,17.3366306 L22.729421,19.1057255 L25.1279291,19.1057255 L23.415435,20.8344943 C22.8564606,21.4363842 22.3366333,21.941304 22.5143006,22.803719 C22.6221431,23.3262697 22.917816,23.4468727 24.0894037,23.4468727 L27.5443168,23.4468727 L27.5443168,21.8584011 C27.6741796,22.212145 27.8795132,22.5124335 28.180456,22.8376679 C28.9272608,23.6344358 31.3381905,23.8628876 32.1162376,22.6919314 C32.1179315,23.2090428 32.538762,23.627496 33.0578365,23.627496 C33.5786049,23.627496 34,23.2069796 34,22.6885552 L34,20.064923 C33.9442908,18.4933321 32.6789761,17.1770144 30.3604559,17.2782985 Z M31.7887577,21.3542316 L31.8711923,21.7076004 L30.8748253,21.5928118 L30.8748253,22.5283764 L30.7029924,22.5283764 L30.7029924,21.5928118 L29.7066253,21.7076004 L29.7884953,21.3542316 L28.6931314,20.5833473 C29.3520436,20.5252028 29.1463335,20.3775907 28.8333456,19.7455031 C29.7480308,20.0251596 29.549849,19.9099959 29.5746923,19.392697 C30.4398792,20.7470899 30.1927636,19.8278433 30.027518,18.8020609 C30.4797791,19.1820636 30.4543712,19.151866 30.7856152,18.3747922 L30.7922024,18.3747922 C31.1228819,19.151866 31.097474,19.1820636 31.549735,18.8020609 C31.385054,19.8278433 31.1379384,20.7470899 32.0029371,19.392697 C32.0279686,19.9099959 31.8297868,20.0251596 32.7442839,19.7455031 C32.4314841,20.3775907 32.2252094,20.5252028 32.8841216,20.5833473 L31.7887577,21.3542316 Z M8.97639362,25.0888186 C8.97639362,25.5920503 9.38611994,26 9.89089071,26 C10.3960379,26 10.8061406,25.5920503 10.8061406,25.0888186 L10.8061406,20.6218165 L10.8012472,20.5293479 C10.772828,19.8895703 10.9960413,19.406783 11.3916521,19.2036522 C12.0196984,18.8821691 12.8442326,19.060354 13.1850752,19.4358552 C13.8306247,19.9188301 13.9563469,21.7938982 12.1719577,21.8391009 L11.278728,21.7704528 L11.278728,23.4592707 L12.2259731,23.5541776 C13.8485044,23.6350172 15.3372205,22.6876362 15.3726034,20.5261594 C15.5162053,19.5073168 14.8531525,18.2564587 13.7858315,17.684954 C12.8442326,17.0682466 10.7818619,17.2409922 10.0469142,17.872517 C9.16855282,18.4173878 8.91710847,19.5971595 8.97639362,20.6218165 L8.97639362,25.0888186 Z M12.3859866,10.050443 C11.8808394,10.050443 11.4720541,10.4582052 11.4720541,10.9614369 L11.4720541,15.3837989 C11.4720541,15.8875933 11.8808394,16.2949803 12.3859866,16.2949803 C12.8911337,16.2949803 13.3004836,15.8875933 13.3004836,15.3837989 L13.3004836,10.9614369 C13.3004836,10.4582052 12.8911337,10.050443 12.3859866,10.050443 Z M13.4084579,15.5176064 C13.515924,16.0403447 13.8117852,16.1605726 14.9829964,16.1605726 L18.4380978,16.1605726 L18.4380978,14.4863847 L15.9257245,14.4863847 L17.3658834,12.9433033 L17.3865861,12.9217335 C17.8060992,12.3950564 18.7606843,11.6851302 18.3577335,10.7071764 C18.1245452,10.1418613 17.4835126,10.0100044 16.3207707,10.0505181 L13.6233901,10.0505181 L13.6233901,11.8196129 L16.0218982,11.8196129 L14.3095923,13.5481942 C13.750618,14.1502717 13.2306024,14.6551914 13.4084579,15.5176064 Z M21.3298584,20.2044887 L21.3400216,20.19361 C21.7597228,19.6669329 22.7148726,18.9571943 22.3113571,17.9790529 C22.0781688,17.4137378 21.4371363,17.2818809 20.274959,17.3223946 L17.5770138,17.3223946 L17.5770138,19.0914894 L19.9758983,19.0914894 L18.263216,20.8200707 C17.7040534,21.4223357 17.1840379,21.9272555 17.3620816,22.7894829 C17.4699241,23.3122212 17.7657853,23.4324491 18.9366201,23.4324491 L22.3917214,23.4324491 L22.3917214,21.7584487 L19.8793482,21.7584487 L21.3193188,20.2153674 L21.3298584,20.2044887 Z M5.0082404,17.802631 C5.0082404,18.3060503 5.4177785,18.714 5.9233021,18.714 C6.42844929,18.714 6.83742277,18.3060503 6.83742277,17.802631 L6.83742277,13.3358165 L6.83252939,13.2433479 C6.80505119,12.6035703 7.0278881,12.120783 7.4234989,11.9174646 C8.05098054,11.5959815 8.87607937,11.774354 9.21692198,12.1496677 C9.86247147,12.6326426 9.98744082,14.5078982 8.2038045,14.5531009 L7.31057479,14.4842652 L7.31057479,16.1730831 L8.25706704,16.2681776 C9.88016292,16.3490173 11.3683145,15.4016362 11.4044502,13.2401594 C11.548052,12.2213168 10.8844347,10.9704587 9.81767824,10.398954 C8.87607937,9.78224661 6.81314409,9.9549922 6.07819634,10.5868922 C5.19983497,11.1312002 4.94895524,12.3104092 5.0082404,13.3358165 L5.0082404,17.802631 Z M26.324153,10.0052966 C25.2660541,9.97022232 23.6657312,10.8527066 23.4368717,12.6142989 C23.3474735,14.0617231 23.5253289,14.664926 24.2079552,15.4016737 C24.9331162,16.1746211 25.9191319,16.272529 27.5382754,16.0924685 L27.5382754,14.3967108 C26.4440408,14.7461408 25.1403319,14.4552304 25.1943473,12.8825141 C25.2660541,12.0604252 26.054829,11.7207485 26.7003785,11.7389421 C27.8301842,11.8105912 28.0093571,12.6142989 28.0278014,12.8179924 L28.0278014,15.2574377 C28.0278014,15.7601067 28.4373395,16.168244 28.9428631,16.168244 C29.4480103,16.168244 29.8569838,15.7601067 29.8569838,15.2574377 L29.8569838,12.7110815 C29.8029684,11.1852559 28.5749187,9.90720113 26.324153,10.0052966 Z" id="Combined-Shape" fill="#FF5E00"></path>
                <path d="M8.934,6.062 L6,6.062 L6,2.06 L8.934,2.06 L8.934,2.96 L7.032,2.96 L7.032,3.584 L8.892,3.584 L8.892,4.484 L7.032,4.484 L7.032,5.162 L8.934,5.162 L8.934,6.062 Z M13.3788462,6.062 L12.1608462,6.062 L11.2908462,4.718 L10.4208462,6.062 L9.20284618,6.062 L10.5948462,4.01 L9.29284618,2.06 L10.5108462,2.06 L11.2908462,3.314 L12.0648462,2.06 L13.2888462,2.06 L11.9868462,4.004 L13.3788462,6.062 Z M14.7996924,6.062 L13.7676924,6.062 L13.7676924,2.06 L15.7716924,2.06 C16.2036945,2.06 16.5436911,2.18699873 16.7916924,2.441 C17.0396936,2.69500127 17.1636924,3.0119981 17.1636924,3.392 C17.1636924,3.76800188 17.0396936,4.08299873 16.7916924,4.337 C16.5436911,4.59100127 16.2036945,4.718 15.7716924,4.718 L14.7996924,4.718 L14.7996924,6.062 Z M15.6156924,3.818 C15.7596931,3.818 15.8786919,3.78000038 15.9726924,3.704 C16.0666928,3.62799962 16.1136924,3.52400066 16.1136924,3.392 C16.1136924,3.25999934 16.0666928,3.15500039 15.9726924,3.077 C15.8786919,2.99899961 15.7596931,2.96 15.6156924,2.96 L14.7996924,2.96 L14.7996924,3.818 L15.6156924,3.818 Z M21.1285385,6.062 L19.9465385,6.062 L19.2745385,4.718 L18.7465385,4.718 L18.7465385,6.062 L17.7145385,6.062 L17.7145385,2.06 L19.7185385,2.06 C20.1505407,2.06 20.4905373,2.18599874 20.7385385,2.438 C20.9865398,2.69000126 21.1105385,3.00799808 21.1105385,3.392 C21.1105385,3.7120016 21.0325393,3.97299899 20.8765385,4.175 C20.7205378,4.37700101 20.5325396,4.51599962 20.3125385,4.592 L21.1285385,6.062 Z M19.5625385,3.818 C19.7065393,3.818 19.8255381,3.78000038 19.9195385,3.704 C20.013539,3.62799962 20.0605385,3.52200068 20.0605385,3.386 C20.0605385,3.25399934 20.013539,3.15000038 19.9195385,3.074 C19.8255381,2.99799962 19.7065393,2.96 19.5625385,2.96 L18.7465385,2.96 L18.7465385,3.818 L19.5625385,3.818 Z M24.7033847,6.062 L21.7693847,6.062 L21.7693847,2.06 L24.7033847,2.06 L24.7033847,2.96 L22.8013847,2.96 L22.8013847,3.584 L24.6613847,3.584 L24.6613847,4.484 L22.8013847,4.484 L22.8013847,5.162 L24.7033847,5.162 L24.7033847,6.062 Z M26.8802309,6.134 C26.1482272,6.134 25.5562332,5.92200212 25.1042309,5.498 L25.6502309,4.694 C26.0022327,5.04600176 26.4302284,5.222 26.9342309,5.222 C27.1102318,5.222 27.2482304,5.19400028 27.3482309,5.138 C27.4482314,5.08199972 27.4982309,5.0040005 27.4982309,4.904 C27.4982309,4.8239996 27.4422315,4.75800026 27.3302309,4.706 C27.2182303,4.65399974 27.0782317,4.61500013 26.9102309,4.589 C26.7422301,4.56299987 26.5612319,4.52200028 26.3672309,4.466 C26.1732299,4.40999972 25.9922317,4.34300039 25.8242309,4.265 C25.6562301,4.18699961 25.5162315,4.06200086 25.4042309,3.89 C25.2922303,3.71799914 25.2362309,3.5120012 25.2362309,3.272 C25.2362309,2.91599822 25.3782295,2.61500123 25.6622309,2.369 C25.9462323,2.12299877 26.3342284,2 26.8262309,2 C27.4782342,2 28.0202287,2.18599814 28.4522309,2.558 L27.8882309,3.332 C27.5562292,3.0519986 27.1662331,2.912 26.7182309,2.912 C26.4302295,2.912 26.2862309,3.00399908 26.2862309,3.188 C26.2862309,3.27600044 26.3642301,3.34599974 26.5202309,3.398 C26.6762317,3.45000026 26.8652298,3.49899977 27.0872309,3.545 C27.309232,3.59100023 27.5302298,3.65099963 27.7502309,3.725 C27.970232,3.79900037 28.1582301,3.92699909 28.3142309,4.109 C28.4702317,4.29100091 28.5482309,4.51999862 28.5482309,4.796 C28.5482309,5.20400204 28.4022324,5.52899879 28.1102309,5.771 C27.8182294,6.01300121 27.4082335,6.134 26.8802309,6.134 Z M30.6050771,6.134 C29.8730734,6.134 29.2810793,5.92200212 28.8290771,5.498 L29.3750771,4.694 C29.7270788,5.04600176 30.1550746,5.222 30.6590771,5.222 C30.835078,5.222 30.9730766,5.19400028 31.0730771,5.138 C31.1730776,5.08199972 31.2230771,5.0040005 31.2230771,4.904 C31.2230771,4.8239996 31.1670776,4.75800026 31.0550771,4.706 C30.9430765,4.65399974 30.8030779,4.61500013 30.6350771,4.589 C30.4670762,4.56299987 30.2860781,4.52200028 30.0920771,4.466 C29.8980761,4.40999972 29.7170779,4.34300039 29.5490771,4.265 C29.3810762,4.18699961 29.2410776,4.06200086 29.1290771,3.89 C29.0170765,3.71799914 28.9610771,3.5120012 28.9610771,3.272 C28.9610771,2.91599822 29.1030757,2.61500123 29.3870771,2.369 C29.6710785,2.12299877 30.0590746,2 30.5510771,2 C31.2030803,2 31.7450749,2.18599814 32.1770771,2.558 L31.6130771,3.332 C31.2810754,3.0519986 30.8910793,2.912 30.4430771,2.912 C30.1550756,2.912 30.0110771,3.00399908 30.0110771,3.188 C30.0110771,3.27600044 30.0890763,3.34599974 30.2450771,3.398 C30.4010779,3.45000026 30.590076,3.49899977 30.8120771,3.545 C31.0340782,3.59100023 31.255076,3.65099963 31.4750771,3.725 C31.6950782,3.79900037 31.8830763,3.92699909 32.0390771,4.109 C32.1950779,4.29100091 32.2730771,4.51999862 32.2730771,4.796 C32.2730771,5.20400204 32.1270785,5.52899879 31.8350771,5.771 C31.5430756,6.01300121 31.1330797,6.134 30.6050771,6.134 Z" id="EXPRESS" fill="#FF5D00"></path>
            </g>
        </g>
    </g>
</svg>