<?xml version="1.0" encoding="UTF-8" standalone="no"?>
<svg width="234px" height="38px" viewBox="0 0 234 38" version="1.1" xmlns="http://www.w3.org/2000/svg" xmlns:xlink="http://www.w3.org/1999/xlink">
    <!-- Generator: Sketch 48.2 (47327) - http://www.bohemiancoding.com/sketch -->
    <title>Logo</title>
    <desc>Created with Sketch.</desc>
    <defs></defs>
    <g id="Nav_Signed_In" stroke="none" stroke-width="1" fill="none" fill-rule="evenodd" transform="translate(-50.000000, -31.000000)">
        <g fill="#FFFFFF" id="Nav">
            <g>
                <g id="Logo" transform="translate(50.000000, 31.000000)">
                    <path d="M152.225894,4.37325485 L152.225894,23.4702591 C152.225894,25.6428329 154.031599,27.4028582 156.255748,27.4028582 C158.479404,27.4028582 160.282977,25.6428329 160.282977,23.4702591 L160.282977,4.37325485 C160.282977,2.20068101 158.479404,0.439372996 156.255748,0.439372996 C154.031599,0.439372996 152.225894,2.20068101 152.225894,4.37325485" id="Fill-1"></path>
                    <path d="M81.8586972,19.5934253 L70.7963718,19.5934253 L77.135376,12.930438 L77.1829637,12.8842608 L77.2256285,12.8376025 C79.0741628,10.5672228 83.2792708,7.49820169 81.502282,3.27507089 C80.4760296,0.834252321 77.6530969,0.265214346 72.5357827,0.439501266 L60.6583957,0.439501266 L60.6583957,8.07846329 L71.2192456,8.07846329 L63.6756173,15.542497 C61.2166481,18.1422101 58.9288304,20.3223198 59.7102526,24.0459992 C60.1831755,26.3022692 61.4874055,26.8225646 66.6457435,26.8225646 L81.8586972,26.8225646 L81.8586972,19.5934253" id="Fill-3"></path>
                    <path d="M205.525006,19.5934253 L194.462681,19.5934253 L200.801849,12.930438 L200.849108,12.8842608 L200.892101,12.8376025 C202.740308,10.5672228 206.945744,7.49820169 205.168755,3.27507089 C204.142174,0.834252321 201.319734,0.265214346 196.199466,0.439501266 L184.32454,0.439501266 L184.32454,8.07846329 L194.885554,8.07846329 L187.344552,15.542497 C184.883121,18.1422101 182.594975,20.3223198 183.376726,24.0459992 C183.851946,26.3022692 185.154042,26.8225646 190.312052,26.8225646 L205.525006,26.8225646 L205.525006,19.5934253" id="Fill-5"></path>
                    <path d="M217.924938,0.187723207 C213.125641,0.0296303797 205.864913,3.95549536 204.826518,11.7931156 C204.420053,18.2308287 205.230356,20.9139173 208.326344,24.1920186 C211.614487,27.6323814 222.230145,28.6190987 225.656128,23.5630143 L225.656128,23.5489046 L225.656128,23.5630143 C225.663184,25.7961958 227.516805,27.602238 229.802161,27.602238 C232.095066,27.602238 233.950492,25.7870565 233.950492,23.5489046 L233.950492,12.2202549 C233.705662,5.43428861 228.134296,-0.249837975 217.924938,0.187723207 M224.213894,17.7870143 L224.577365,19.3126262 L220.18929,18.8178245 L220.18929,22.8572084 L219.433795,22.8572084 L219.433795,18.8178245 L215.045393,19.3126262 L215.406403,17.7870143 L210.583476,14.4582464 C213.484354,14.2073181 212.579039,13.5707781 211.200966,10.8410312 C215.228195,12.0482127 214.356192,11.5511662 214.46548,9.31782447 C218.274297,15.1659764 217.186345,11.1963392 216.45891,6.76701435 C218.450044,8.40822954 218.338623,8.27803544 219.796938,4.9223308 L219.825819,4.9223308 C221.28233,8.27803544 221.170253,8.40822954 223.16155,6.76701435 C222.436741,11.1963392 221.34846,15.1659764 225.15695,9.31782447 C225.266565,11.5511662 224.394563,12.0482127 228.421791,10.8410312 C227.043718,13.5707781 226.136107,14.2073181 229.037313,14.4582464 L224.213894,17.7870143" id="Fill-7"></path>
                    <path d="M128.481179,2.75413418 C131.716975,0.0272734177 140.797849,-0.718937553 144.943719,1.94378819 C149.64341,4.41186414 152.563159,9.81251392 151.931228,14.2118557 C151.774517,23.5444633 145.219399,27.6348346 138.075179,27.2865814 L133.905351,26.8757966 L133.905351,19.5839654 L137.837405,19.8809105 C145.694455,19.6856194 145.140961,11.5888937 142.299322,9.50402447 C140.797849,7.88317215 137.167403,7.11307089 134.40174,8.50111308 C132.66036,9.37864051 131.676772,11.4633494 131.802797,14.2258051 L131.823966,14.6248852 L131.823966,33.9125308 C131.823966,36.085265 130.01826,37.8472143 127.79444,37.8472143 C125.570619,37.8472143 123.767211,36.085265 123.767211,33.9125308 L123.767211,14.6248852 C123.505807,10.2003705 124.612959,5.10612574 128.481179,2.75413418" id="Fill-10"></path>
                    <path d="M28.4974914,4.31203797 L28.4974914,23.4064768 C28.4974914,25.5819367 30.2984381,27.341481 32.5222586,27.341481 C34.7460791,27.341481 36.5494872,25.5819367 36.5494872,23.4064768 L36.5494872,4.31203797 C36.5494872,2.1393038 34.7460791,0.378156118 32.5222586,0.378156118 C30.2984381,0.378156118 28.4974914,2.1393038 28.4974914,4.31203797" id="Fill-13"></path>
                    <path d="M48.1081847,19.5322726 L54.4496504,12.8694456 L54.5399028,12.7762895 C56.3882731,10.5015806 60.5914119,7.43688861 58.8165564,3.21407848 C57.7899757,0.773099578 54.9675353,0.204061603 49.8474316,0.378188186 L37.9702086,0.378188186 L37.9702086,8.01698987 L48.5312226,8.01698987 L40.992353,15.4810236 C38.5310865,18.080897 36.2406433,20.2611671 37.0245269,23.9845257 C37.4974498,26.2412768 38.7995466,26.7610911 43.9575564,26.7610911 L59.1705101,26.7610911 L59.1705101,19.5322726 L48.1081847,19.5322726 Z" id="Fill-15"></path>
                    <path d="M182.836901,19.5322726 L171.77474,19.5322726 L178.115877,12.8694456 L178.161332,12.8227873 L178.20613,12.7762895 C180.054828,10.5015806 184.2601,7.43688861 182.482947,3.21407848 C181.456367,0.773099578 178.633926,0.204061603 173.51612,0.378188186 L161.636599,0.378188186 L161.636599,8.01698987 L172.199911,8.01698987 L164.658744,15.4810236 C162.197149,18.080897 159.906706,20.2611671 160.690754,23.9845257 C161.165974,26.2412768 162.468071,26.7610911 167.623783,26.7610911 L182.836901,26.7610911 L182.836901,19.5322726" id="Fill-17"></path>
                    <path d="M4.74782062,2.69432827 C7.98361725,-0.0338151899 17.0667884,-0.78002616 21.212822,1.88285992 C25.910052,4.35061519 28.8324265,9.75142532 28.2004952,14.1509274 C28.0411586,23.4833747 21.4885022,27.573746 14.3418206,27.2253325 L10.1742905,26.8145477 L10.1742905,19.5225561 L14.1065079,19.8198219 C21.9610969,19.6248515 21.4102288,11.5276447 18.5684251,9.44277553 C17.0667884,7.82208354 13.434045,7.0516616 10.6710072,8.43986414 C8.92946297,9.31723122 7.94800856,11.4022608 8.06943913,14.1643958 L8.09077153,14.563957 L8.09077153,33.8509612 C8.09077153,36.0241764 6.28966073,37.7859654 4.06584025,37.7859654 C1.83955835,37.7859654 0.0363143058,36.0241764 0.0363143058,33.8509612 L0.0363143058,14.563957 C-0.224925526,10.1365561 0.879928612,5.04439578 4.74782062,2.69432827" id="Fill-19"></path>
                    <path d="M99.2404666,19.1442717 L99.2404666,26.4662464 C92.1103586,27.2442042 87.7697079,26.8213941 84.5764119,23.4833266 C81.5705129,20.3028709 80.7867934,17.6981873 81.1809505,11.4482295 C82.1884961,3.84229705 89.2352436,0.0313940928 93.8945676,0.183233755 C103.804615,-0.240378059 109.212214,5.27795949 109.449824,11.8662295 L109.449824,22.8613772 C109.449824,25.031546 107.648713,26.7936557 105.424893,26.7936557 C103.198939,26.7936557 101.395531,25.031546 101.395531,22.8613772 L101.395531,12.328162 C101.314632,11.4482295 100.525826,7.97804388 95.5506181,7.66891308 C92.7089785,7.58986667 89.2352436,9.05711561 88.9195241,12.6066684 C88.681914,19.3974447 94.4221342,20.6533688 99.2404666,19.1442717" id="Fill-22"></path>
                </g>
            </g>
        </g>
    </g>
</svg>